Coordinates
version=1
nRows=5
nColumns=42
inDegrees=yes

Units are S.I. units (second, meters, Newtons, ...)
If the header above contains a line with 'inDegrees', this indicates whether rotational values are in degrees (yes) or radians (no).

endheader
time	pelvis_tilt	pelvis_list	pelvis_rotation	pelvis_tx	pelvis_ty	pelvis_tz	hip_flexion_r	hip_adduction_r	hip_rotation_r	knee_angle_r	knee_adduction_r	knee_angle_r_beta	ankle_angle_r	subtalar_angle_r	mtp_angle_r	hip_flexion_l	hip_adduction_l	hip_rotation_l	knee_angle_l	knee_adduction_l	knee_angle_l_beta	ankle_angle_l	subtalar_angle_l	mtp_angle_l	lumbar_extension	lumbar_bending	lumbar_rotation	arm_flex_r	arm_add_r	arm_rot_r	elbow_flex_r	pro_sup_r	wrist_flex_r	wrist_dev_r	arm_flex_l	arm_add_l	arm_rot_l	elbow_flex_l	pro_sup_l	wrist_flex_l	wrist_dev_l
      0.78000000	      9.63582133	     -0.59232251	      0.35937274	     -0.05892618	      0.93691453	     -0.27647054	     18.75501542	      1.73068606	    -15.57925648	     22.46121974	     -5.20432588	      0.39202224	      9.11778341	      9.30113968	     -7.70699398	    -27.67337831	     -1.24454383	    -19.00066098	     27.80018544	     -6.36804392	      0.48520477	     10.08809022	     23.43938807	     -7.70699398	    -23.37769592	      3.66690809	     -6.05277554	     -7.64947942	     -5.54244920	     -1.54670685	     29.34291408	     90.00000001	      0.00000000	      0.00000000	      3.43610644	    -14.85793812	     -5.84959188	     55.36379636	     90.00000001	      0.00000000	      0.00000000
      0.79000000	      9.76616416	     -1.08419113	     -0.20504615	     -0.04274566	      0.93937358	     -0.27444076	     18.01666387	      2.44695864	    -14.39304293	     23.47262074	     -4.95061050	      0.40967452	      9.26597970	      8.25392108	     -7.69352249	    -26.72891169	     -1.70942260	    -18.52606843	     31.26224564	     -6.66047129	      0.54562912	      7.72626339	     20.21291936	     -7.69352249	    -23.62525211	      4.10775870	     -5.40258669	     -7.13935377	     -5.89488626	     -1.33697079	     29.29861880	     90.00000001	      0.00000000	      0.00000000	      2.71887949	    -14.55014120	     -5.81599191	     54.62112179	     90.00000001	      0.00000000	      0.00000000
      0.80000000	      9.80971629	     -1.62921140	     -0.64929211	     -0.02693108	      0.94190875	     -0.27233989	     17.22526892	      3.19229798	    -13.75257310	     24.13829040	     -4.79879446	      0.42129264	      9.91438157	      8.19684277	     -7.69058389	    -25.34127493	     -2.41309345	    -18.68777938	     35.09267416	     -7.24819391	      0.61248271	      6.08415414	     18.42027652	     -7.69058389	    -23.83830664	      4.58509680	     -4.82629480	     -6.56289841	     -6.08674427	     -1.26181984	     29.42919193	     90.00000001	      0.00000000	      0.00000000	      1.96697923	    -14.18239629	     -5.66498142	     54.07197302	     90.00000001	      0.00000000	      0.00000000
      0.81000000	      9.79250643	     -2.04847587	     -1.19143407	     -0.01141880	      0.94457846	     -0.27027772	     16.36600892	      3.80065828	    -13.01243009	     24.56857346	     -4.57680931	      0.42880250	     10.53610228	      8.01386958	     -7.68476507	    -23.76334720	     -2.89757339	    -18.57510980	     38.94762751	     -7.70784135	      0.67976434	      4.54713943	     15.31956133	     -7.68476507	    -23.99578856	      4.87543335	     -4.16974587	     -6.00793300	     -6.34333783	     -1.08261033	     29.52067650	     90.00000001	      0.00000000	      0.00000000	      1.34638659	    -13.85840653	     -5.42758982	     53.17894349	     90.00000001	      0.00000000	      0.00000000
      0.82000000	      9.77380265	     -2.49113750	     -1.59989358	      0.00388336	      0.94745277	     -0.26831261	     15.31037054	      4.40499617	    -12.61899536	     24.57879391	     -4.41363130	      0.42898088	     11.33481447	      8.15102825	     -7.68062718	    -22.06638480	     -3.51175970	    -18.31811398	     42.75109939	     -8.02750616	      0.74614744	      3.68815085	     12.85780869	     -7.68062718	    -24.14274765	      5.21002003	     -3.66792062	     -5.44418220	     -6.60219205	     -0.95190132	     29.72664486	     90.00000001	      0.00000000	      0.00000000	      0.63122189	    -13.54913133	     -5.15434656	     52.34729702	     90.00000001	      0.00000000	      0.00000000
